<svg width="32" height="33" viewBox="0 0 32 33" fill="none" xmlns="http://www.w3.org/2000/svg">
<rect y="0.0195312" width="32" height="32" rx="16" fill="#CD1E9C"/>
<path d="M13.334 16.0195C13.334 14.5468 14.5276 13.3527 16.0003 13.3527C17.4731 13.3527 18.6673 14.5468 18.6673 16.0195C18.6673 17.4922 17.4731 18.6864 16.0003 18.6864C14.5276 18.6864 13.334 17.4922 13.334 16.0195ZM11.8923 16.0195C11.8923 18.2883 13.7314 20.1274 16.0003 20.1274C18.2692 20.1274 20.1084 18.2883 20.1084 16.0195C20.1084 13.7507 18.2692 11.9116 16.0003 11.9116C13.7314 11.9116 11.8923 13.7507 11.8923 16.0195ZM19.311 11.7487C19.3109 11.9386 19.3671 12.1242 19.4726 12.2822C19.578 12.4401 19.7279 12.5632 19.9033 12.6359C20.0787 12.7086 20.2717 12.7277 20.4579 12.6908C20.6442 12.6538 20.8153 12.5624 20.9496 12.4282C21.0839 12.294 21.1754 12.123 21.2125 11.9368C21.2497 11.7506 21.2307 11.5576 21.1581 11.3821C21.0855 11.2067 20.9625 11.0567 20.8047 10.9511C20.6469 10.8456 20.4613 10.7892 20.2714 10.7891H20.271C20.0165 10.7892 19.7724 10.8904 19.5924 11.0703C19.4124 11.2502 19.3112 11.4942 19.311 11.7487ZM12.7682 22.5313C11.9882 22.4958 11.5642 22.3659 11.2825 22.2561C10.909 22.1107 10.6425 21.9375 10.3623 21.6577C10.0821 21.3779 9.90862 21.1117 9.76385 20.7382C9.65402 20.4566 9.52409 20.0325 9.48864 19.2526C9.44985 18.4093 9.44211 18.156 9.44211 16.0196C9.44211 13.8832 9.45049 13.6306 9.48864 12.7866C9.52416 12.0067 9.65504 11.5834 9.76385 11.301C9.90926 10.9275 10.0825 10.661 10.3623 10.3808C10.6421 10.1006 10.9083 9.92718 11.2825 9.78241C11.5641 9.67259 11.9882 9.54267 12.7682 9.50721C13.6115 9.46843 13.8648 9.46068 16.0003 9.46068C18.1358 9.46068 18.3894 9.46907 19.2334 9.50721C20.0134 9.54273 20.4367 9.67361 20.7191 9.78241C21.0926 9.92718 21.3591 10.101 21.6393 10.3808C21.9195 10.6606 22.0923 10.9275 22.2378 11.301C22.3476 11.5826 22.4775 12.0067 22.513 12.7866C22.5518 13.6306 22.5595 13.8832 22.5595 16.0196C22.5595 18.156 22.5518 18.4086 22.513 19.2526C22.4774 20.0325 22.3469 20.4565 22.2378 20.7382C22.0923 21.1117 21.9192 21.3782 21.6393 21.6577C21.3595 21.9373 21.0926 22.1107 20.7191 22.2561C20.4375 22.366 20.0134 22.4959 19.2334 22.5313C18.3901 22.5701 18.1368 22.5779 16.0003 22.5779C13.8639 22.5779 13.6112 22.5701 12.7682 22.5313ZM12.7019 8.06798C11.8503 8.10676 11.2683 8.2418 10.76 8.43956C10.2337 8.64379 9.7881 8.91777 9.34284 9.36232C8.89757 9.80686 8.62428 10.2531 8.42005 10.7795C8.22228 11.288 8.08724 11.8696 8.04845 12.7213C8.00902 13.5743 8 13.847 8 16.0195C8 18.1921 8.00902 18.4648 8.04845 19.3178C8.08724 20.1695 8.22228 20.7511 8.42005 21.2596C8.62428 21.7856 8.89764 22.2324 9.34284 22.6767C9.78804 23.1211 10.2337 23.3947 10.76 23.5995C11.2693 23.7973 11.8503 23.9323 12.7019 23.9711C13.5554 24.0099 13.8277 24.0195 16.0003 24.0195C18.173 24.0195 18.4457 24.0105 19.2987 23.9711C20.1504 23.9323 20.732 23.7973 21.2406 23.5995C21.7666 23.3947 22.2125 23.1213 22.6578 22.6767C23.1031 22.2322 23.3758 21.7856 23.5806 21.2596C23.7784 20.7511 23.914 20.1694 23.9522 19.3178C23.991 18.4641 24 18.1921 24 16.0195C24 13.847 23.991 13.5743 23.9522 12.7213C23.9134 11.8696 23.7784 11.2877 23.5806 10.7795C23.3758 10.2535 23.1024 9.80756 22.6578 9.36232C22.2132 8.91707 21.7666 8.64379 21.2412 8.43956C20.732 8.2418 20.1504 8.10612 19.2993 8.06798C18.4463 8.0292 18.1736 8.01953 16.001 8.01953C13.8283 8.01953 13.5554 8.02856 12.7019 8.06798Z" fill="white"/>
</svg>
