<svg width="32" height="33" viewBox="0 0 32 33" fill="none" xmlns="http://www.w3.org/2000/svg">
<rect y="0.0195312" width="32" height="32" rx="16" fill="#5181B8"/>
<path fill-rule="evenodd" clip-rule="evenodd" d="M23.6329 11.6966C23.7442 11.3064 23.6329 11.0195 23.1035 11.0195H21.3531C20.908 11.0195 20.703 11.2673 20.5917 11.5406C20.5917 11.5406 19.7015 13.8239 18.4404 15.307C18.0325 15.7364 17.847 15.8728 17.6245 15.8728C17.5132 15.8728 17.3522 15.7364 17.3522 15.3461V11.6966C17.3522 11.2282 17.223 11.0195 16.8521 11.0195H14.1014C13.8234 11.0195 13.6561 11.2369 13.6561 11.443C13.6561 11.887 14.2865 11.9894 14.3515 13.2383V15.9511C14.3515 16.5458 14.2495 16.6537 14.0269 16.6537C13.4335 16.6537 11.9902 14.3601 11.134 11.7357C10.9662 11.2256 10.7979 11.0195 10.3505 11.0195H8.60014C8.10002 11.0195 8 11.2673 8 11.5406C8 12.0285 8.59351 14.4485 10.7631 17.649C12.2097 19.8345 14.2475 21.0195 16.1019 21.0195C17.2147 21.0195 17.3522 20.7564 17.3522 20.3031V18.6511C17.3522 18.1248 17.4576 18.0198 17.8098 18.0198C18.0696 18.0198 18.5146 18.1564 19.5532 19.2102C20.74 20.459 20.9355 21.0195 21.6032 21.0195H23.3536C23.8537 21.0195 24.1038 20.7564 23.9595 20.237C23.8017 19.7194 23.2351 18.9686 22.4831 18.0783C22.0752 17.5708 21.4631 17.0244 21.2779 16.7512C21.0182 16.3999 21.0923 16.2439 21.2779 15.9318C21.2779 15.9318 23.4103 12.7702 23.6329 11.6968V11.6966Z" fill="white"/>
</svg>
