<svg width="32" height="33" viewBox="0 0 32 33" fill="none" xmlns="http://www.w3.org/2000/svg">
<rect y="0.0195312" width="32" height="32" rx="16" fill="#FF0000"/>
<path fill-rule="evenodd" clip-rule="evenodd" d="M22.2602 10.7606C22.9456 10.9451 23.4859 11.4855 23.6704 12.1708C24.0131 13.4229 23.9999 16.0324 23.9999 16.0324C23.9999 16.0324 23.9999 18.6288 23.6704 19.8809C23.4859 20.5662 22.9456 21.1066 22.2602 21.2911C21.0082 21.6206 16 21.6206 16 21.6206C16 21.6206 11.0049 21.6206 9.7397 21.2779C9.05436 21.0934 8.514 20.553 8.32949 19.8677C8 18.6288 8 16.0193 8 16.0193C8 16.0193 8 13.4229 8.32949 12.1708C8.514 11.4855 9.06754 10.932 9.7397 10.7475C10.9918 10.418 16 10.418 16 10.418C16 10.418 21.0082 10.418 22.2602 10.7606ZM18.571 16.0198L14.4062 18.4184V13.6211L18.571 16.0198Z" fill="white"/>
</svg>
