<svg width="25" height="21" viewBox="0 0 25 21" fill="none" xmlns="http://www.w3.org/2000/svg">
<g clip-path="url(#clip0_919_27592)">
<path d="M15.7153 14.3821H9.09375V2.26562H15.7153V14.3821Z" fill="#6C6BBD"/>
<path d="M24.4148 13.0957V12.7969H24.3383L24.2498 13.0022L24.1617 12.7969H24.0848V13.0957H24.1392V12.8704L24.2219 13.0649H24.2783L24.361 12.8699V13.0957H24.4148ZM23.9294 13.0957V12.8479H24.0275V12.7974H23.7773V12.8479H23.8755V13.0957H23.9294Z" fill="#0099DF"/>
<path d="M21.1039 19.7471V19.7975H21.1497C21.1597 19.7975 21.1684 19.7951 21.1742 19.7911C21.1804 19.7872 21.1838 19.7804 21.1838 19.7721C21.1838 19.7637 21.1804 19.7574 21.1742 19.7534C21.1684 19.749 21.1597 19.7471 21.1497 19.7471H21.1039ZM21.1501 19.7117C21.1737 19.7117 21.192 19.7172 21.205 19.728C21.218 19.7387 21.2242 19.7534 21.2242 19.7721C21.2242 19.7877 21.2194 19.8004 21.2088 19.8107C21.1987 19.8205 21.1838 19.8269 21.165 19.8294L21.2256 19.9004H21.1785L21.1222 19.8298H21.1039V19.9004H21.0645V19.7117H21.1501ZM21.1381 19.9651C21.1597 19.9651 21.18 19.9611 21.1982 19.9528C21.217 19.9445 21.2334 19.9332 21.2473 19.919C21.2612 19.9048 21.2723 19.8881 21.2805 19.8685C21.2882 19.8494 21.2925 19.8289 21.2925 19.8068C21.2925 19.7847 21.2882 19.7642 21.2805 19.7451C21.2723 19.726 21.2612 19.7088 21.2473 19.6947C21.2334 19.6804 21.217 19.6691 21.1982 19.6613C21.18 19.653 21.1597 19.6491 21.1381 19.6491C21.1165 19.6491 21.0957 19.653 21.077 19.6613C21.0578 19.6691 21.0409 19.6804 21.0269 19.6947C21.013 19.7088 21.0019 19.726 20.9942 19.7451C20.986 19.7642 20.9822 19.7847 20.9822 19.8068C20.9822 19.8289 20.986 19.8494 20.9942 19.8685C21.0019 19.8881 21.013 19.9048 21.0269 19.919C21.0409 19.9332 21.0578 19.9445 21.077 19.9528C21.0957 19.9611 21.1165 19.9651 21.1381 19.9651ZM21.1381 19.6035C21.1665 19.6035 21.1925 19.6089 21.217 19.6197C21.242 19.63 21.2632 19.6447 21.2819 19.6633C21.3003 19.6814 21.3147 19.703 21.3253 19.728C21.3359 19.7524 21.3412 19.7789 21.3412 19.8068C21.3412 19.8347 21.3359 19.8612 21.3253 19.8857C21.3147 19.9102 21.3003 19.9317 21.2819 19.9499C21.2632 19.9685 21.242 19.9832 21.217 19.994C21.1925 20.0047 21.1665 20.0101 21.1381 20.0101C21.1092 20.0101 21.0828 20.0047 21.0578 19.994C21.0327 19.9832 21.0111 19.9685 20.9928 19.9499C20.9745 19.9317 20.96 19.9102 20.9495 19.8857C20.9389 19.8612 20.9336 19.8347 20.9336 19.8068C20.9336 19.7789 20.9389 19.7524 20.9495 19.728C20.96 19.703 20.9745 19.6814 20.9928 19.6633C21.0111 19.6447 21.0327 19.63 21.0578 19.6197C21.0828 19.6089 21.1092 19.6035 21.1381 19.6035Z" fill="#231F20"/>
<path d="M17.948 17.8036C18.036 17.8036 18.1625 17.8208 18.2592 17.8595L18.1245 18.2788C18.0321 18.2401 17.9398 18.2274 17.8512 18.2274C17.5654 18.2274 17.4225 18.4155 17.4225 18.7535V19.9009H16.9852V17.8551H17.4182V18.1035C17.5317 17.9237 17.6958 17.8036 17.948 17.8036ZM16.3322 18.2617H15.6177V19.1861C15.6177 19.3915 15.6889 19.5286 15.9078 19.5286C16.0214 19.5286 16.1642 19.4899 16.2942 19.413L16.4202 19.7937C16.2817 19.8921 16.0632 19.9524 15.8741 19.9524C15.3569 19.9524 15.1764 19.6697 15.1764 19.1945V18.2617H14.7684V17.8551H15.1764V17.2344H15.6177V17.8551H16.3322V18.2617ZM10.7367 18.6982C10.7834 18.4028 10.9595 18.2015 11.2708 18.2015C11.5523 18.2015 11.7332 18.3812 11.7794 18.6982H10.7367ZM12.2336 18.878C12.2293 18.2401 11.8424 17.8036 11.279 17.8036C10.6905 17.8036 10.2786 18.2401 10.2786 18.878C10.2786 19.5281 10.7074 19.9519 11.3088 19.9519C11.6114 19.9519 11.8886 19.875 12.1326 19.6653L11.918 19.3356C11.7501 19.4728 11.5355 19.5497 11.3339 19.5497C11.0524 19.5497 10.7959 19.4169 10.7329 19.049H12.2249C12.2293 18.9931 12.2336 18.9378 12.2336 18.878ZM14.1544 18.3773C14.0327 18.2999 13.7849 18.2015 13.5284 18.2015C13.2888 18.2015 13.1459 18.2916 13.1459 18.4415C13.1459 18.5781 13.297 18.6169 13.4861 18.6424L13.692 18.6722C14.1294 18.7369 14.394 18.9251 14.394 19.2846C14.394 19.6741 14.0577 19.9524 13.4779 19.9524C13.1498 19.9524 12.8471 19.8667 12.6075 19.6868L12.8134 19.34C12.9607 19.4556 13.1796 19.5541 13.4823 19.5541C13.7805 19.5541 13.9403 19.4645 13.9403 19.3057C13.9403 19.1906 13.8267 19.1259 13.5871 19.0921L13.3812 19.0622C12.9313 18.9975 12.6874 18.7923 12.6874 18.4586C12.6874 18.052 13.0155 17.8036 13.5241 17.8036C13.8436 17.8036 14.1337 17.8766 14.3436 18.0177L14.1544 18.3773ZM19.5459 18.2265C19.4559 18.2265 19.3727 18.2426 19.2952 18.2745C19.2182 18.3068 19.1513 18.3518 19.095 18.4097C19.0387 18.4675 18.9945 18.537 18.9622 18.6178C18.93 18.6987 18.9141 18.7878 18.9141 18.8848C18.9141 18.9824 18.93 19.0711 18.9622 19.1518C18.9945 19.2327 19.0387 19.3023 19.095 19.3601C19.1513 19.4179 19.2182 19.463 19.2952 19.4953C19.3727 19.5276 19.4559 19.5433 19.5459 19.5433C19.6358 19.5433 19.7195 19.5276 19.7966 19.4953C19.874 19.463 19.9414 19.4179 19.9977 19.3601C20.0549 19.3023 20.0992 19.2327 20.132 19.1518C20.1642 19.0711 20.1801 18.9824 20.1801 18.8848C20.1801 18.7878 20.1642 18.6987 20.132 18.6178C20.0992 18.537 20.0549 18.4675 19.9977 18.4097C19.9414 18.3518 19.874 18.3068 19.7966 18.2745C19.7195 18.2426 19.6358 18.2265 19.5459 18.2265ZM19.5459 17.8036C19.7017 17.8036 19.8461 17.8311 19.9789 17.8865C20.1117 17.9413 20.2267 18.0172 20.3234 18.1138C20.4206 18.2102 20.4962 18.3244 20.5511 18.4557C20.6059 18.5875 20.6333 18.7305 20.6333 18.8848C20.6333 19.0392 20.6059 19.1822 20.5511 19.314C20.4962 19.4453 20.4206 19.56 20.3234 19.6565C20.2267 19.753 20.1117 19.8285 19.9789 19.8838C19.8461 19.9387 19.7017 19.9661 19.5459 19.9661C19.39 19.9661 19.2456 19.9387 19.1128 19.8838C18.98 19.8285 18.866 19.753 18.7698 19.6565C18.6736 19.56 18.598 19.4453 18.5431 19.314C18.4883 19.1822 18.4608 19.0392 18.4608 18.8848C18.4608 18.7305 18.4883 18.5875 18.5431 18.4557C18.598 18.3244 18.6736 18.2102 18.7698 18.1138C18.866 18.0172 18.98 17.9413 19.1128 17.8865C19.2456 17.8311 19.39 17.8036 19.5459 17.8036ZM8.18266 18.878C8.18266 18.5184 8.41417 18.223 8.79235 18.223C9.15372 18.223 9.39766 18.5057 9.39766 18.878C9.39766 19.2504 9.15372 19.5325 8.79235 19.5325C8.41417 19.5325 8.18266 19.2376 8.18266 18.878ZM9.80955 18.878V17.8551H9.37258V18.1035C9.23356 17.9192 9.02379 17.8036 8.73796 17.8036C8.17455 17.8036 7.73326 18.2528 7.73326 18.878C7.73326 19.5026 8.17455 19.9524 8.73796 19.9524C9.02379 19.9524 9.23356 19.8368 9.37258 19.6525V19.9009H9.80955V18.878ZM7.34643 19.9009V18.6169C7.34643 18.1333 7.04378 17.8081 6.55636 17.8036C6.2999 17.7992 6.03478 17.8805 5.85 18.1676C5.71143 17.9408 5.4925 17.8036 5.18552 17.8036C4.9714 17.8036 4.76113 17.8678 4.59705 18.1074V17.8551H4.16016V19.9009H4.60138V18.7668C4.60138 18.4116 4.79482 18.223 5.09313 18.223C5.38328 18.223 5.53051 18.4155 5.53051 18.7624V19.9009H5.97174V18.7668C5.97174 18.4116 6.17383 18.223 6.46349 18.223C6.76229 18.223 6.9052 18.4155 6.9052 18.7624V19.9009H7.34643Z" fill="#9A9C9E"/>
<path d="M24.647 8.32304C24.647 12.5789 21.2591 16.0289 17.0797 16.0289C15.3143 16.0289 13.6899 15.413 12.4023 14.3813C14.1629 12.9703 15.2932 10.781 15.2932 8.32304C15.2932 5.86514 14.1629 3.67572 12.4023 2.26476C13.6899 1.23301 15.3143 0.617188 17.0797 0.617188C21.2591 0.617188 24.647 4.06716 24.647 8.32304Z" fill="#0099DF"/>
<path d="M9.51789 8.32304C9.51789 5.86514 10.6482 3.67572 12.4083 2.26476C11.1212 1.23301 9.49676 0.617188 7.7313 0.617188C3.55194 0.617188 0.164062 4.06716 0.164062 8.32304C0.164062 12.5789 3.55194 16.0289 7.7313 16.0289C9.49676 16.0289 11.1212 15.413 12.4083 14.3813C10.6482 12.9703 9.51789 10.781 9.51789 8.32304Z" fill="#EB001B"/>
</g>
<defs>
<clipPath id="clip0_919_27592">
<rect width="25" height="20" fill="white" transform="translate(0 0.0195312)"/>
</clipPath>
</defs>
</svg>
