<svg width="26" height="21" viewBox="0 0 26 21" fill="none" xmlns="http://www.w3.org/2000/svg">
<g clip-path="url(#clip0_919_27585)">
<path d="M25.4678 19.7487V19.8007H25.5164C25.5271 19.8007 25.5363 19.7982 25.5429 19.7941C25.5491 19.7901 25.5526 19.7831 25.5526 19.7744C25.5526 19.7658 25.5491 19.7593 25.5429 19.7552C25.5363 19.7507 25.5271 19.7487 25.5164 19.7487H25.4678ZM25.5168 19.7123C25.5419 19.7123 25.5614 19.7178 25.5751 19.729C25.5889 19.7401 25.5955 19.7552 25.5955 19.7744C25.5955 19.7906 25.5904 19.8038 25.5792 19.8144C25.5684 19.8244 25.5532 19.8311 25.5327 19.8335L25.5971 19.9068H25.547L25.4872 19.8341H25.4678V19.9068H25.4259V19.7123H25.5168ZM25.5041 19.974C25.5271 19.974 25.5485 19.9694 25.568 19.9609C25.5879 19.9523 25.6052 19.9407 25.6201 19.926C25.6349 19.9114 25.6467 19.8942 25.6553 19.874C25.6635 19.8543 25.6681 19.8331 25.6681 19.8103C25.6681 19.7876 25.6635 19.7664 25.6553 19.7467C25.6467 19.727 25.6349 19.7093 25.6201 19.6946C25.6052 19.68 25.5879 19.6684 25.568 19.6598C25.5485 19.6517 25.5271 19.6476 25.5041 19.6476C25.4811 19.6476 25.4591 19.6517 25.4392 19.6598C25.4188 19.6684 25.4009 19.68 25.3861 19.6946C25.3712 19.7093 25.3595 19.727 25.3513 19.7467C25.3426 19.7664 25.3385 19.7876 25.3385 19.8103C25.3385 19.8331 25.3426 19.8543 25.3513 19.874C25.3595 19.8942 25.3712 19.9114 25.3861 19.926C25.4009 19.9407 25.4188 19.9523 25.4392 19.9609C25.4591 19.9694 25.4811 19.974 25.5041 19.974ZM25.5041 19.6007C25.5343 19.6007 25.5618 19.6062 25.5884 19.6173C25.6145 19.6279 25.637 19.6431 25.6568 19.6623C25.6763 19.681 25.6917 19.7032 25.7029 19.729C25.7141 19.7542 25.7197 19.7815 25.7197 19.8103C25.7197 19.8391 25.7141 19.8664 25.7029 19.8917C25.6917 19.9169 25.6763 19.9391 25.6568 19.9584C25.637 19.9771 25.6145 19.9922 25.5884 20.0033C25.5618 20.0144 25.5343 20.02 25.5041 20.02C25.4734 20.02 25.4453 20.0144 25.4187 20.0033C25.3922 19.9922 25.3692 19.9771 25.3497 19.9584C25.3303 19.9391 25.315 19.9169 25.3038 19.8917C25.2925 19.8664 25.2869 19.8391 25.2869 19.8103C25.2869 19.7815 25.2925 19.7542 25.3038 19.729C25.315 19.7032 25.3303 19.681 25.3497 19.6623C25.3692 19.6431 25.3922 19.6279 25.4187 19.6173C25.4453 19.6062 25.4734 19.6007 25.5041 19.6007ZM5.59479 18.8514C5.59479 18.4805 5.84058 18.1759 6.24223 18.1759C6.626 18.1759 6.88508 18.4674 6.88508 18.8514C6.88508 19.2354 6.626 19.5269 6.24223 19.5269C5.84058 19.5269 5.59479 19.2222 5.59479 18.8514ZM7.3225 18.8514V17.7964H6.8585V18.0526C6.71133 17.8627 6.48802 17.7435 6.18449 17.7435C5.5861 17.7435 5.117 18.2072 5.117 18.8514C5.117 19.4961 5.5861 19.9594 6.18449 19.9594C6.48802 19.9594 6.71133 19.8401 6.8585 19.6501V19.9063H7.3225V18.8514ZM23.0022 18.8514C23.0022 18.4805 23.248 18.1759 23.6496 18.1759C24.0339 18.1759 24.2925 18.4674 24.2925 18.8514C24.2925 19.2354 24.0339 19.5269 23.6496 19.5269C23.248 19.5269 23.0022 19.2222 23.0022 18.8514ZM24.7305 18.8514V16.9492H24.2659V18.0526C24.1187 17.8627 23.8955 17.7435 23.5919 17.7435C22.9935 17.7435 22.5244 18.2072 22.5244 18.8514C22.5244 19.4961 22.9935 19.9594 23.5919 19.9594C23.8955 19.9594 24.1187 19.8401 24.2659 19.6501V19.9063H24.7305V18.8514ZM13.0821 18.1541C13.381 18.1541 13.5731 18.3396 13.6222 18.666H12.5148C12.5644 18.3613 12.7514 18.1541 13.0821 18.1541ZM13.0913 17.7435C12.4658 17.7435 12.0284 18.1936 12.0284 18.8514C12.0284 19.5224 12.4837 19.9594 13.1224 19.9594C13.4439 19.9594 13.7382 19.8801 13.9973 19.6638L13.7699 19.3238C13.591 19.4648 13.3631 19.5446 13.149 19.5446C12.85 19.5446 12.5777 19.4077 12.5108 19.0277H14.0954C14.1 18.9706 14.1046 18.9131 14.1046 18.8514C14.1 18.1936 13.6891 17.7435 13.0913 17.7435ZM18.6939 18.8514C18.6939 18.4805 18.9397 18.1759 19.3414 18.1759C19.7251 18.1759 19.9842 18.4674 19.9842 18.8514C19.9842 19.2354 19.7251 19.5269 19.3414 19.5269C18.9397 19.5269 18.6939 19.2222 18.6939 18.8514ZM20.4216 18.8514V17.7964H19.9576V18.0526C19.8099 17.8627 19.5872 17.7435 19.2836 17.7435C18.6852 17.7435 18.2161 18.2072 18.2161 18.8514C18.2161 19.4961 18.6852 19.9594 19.2836 19.9594C19.5872 19.9594 19.8099 19.8401 19.9576 19.6501V19.9063H20.4216V18.8514ZM16.0735 18.8514C16.0735 19.4915 16.5242 19.9594 17.212 19.9594C17.5334 19.9594 17.7476 19.8886 17.9795 19.7078L17.7567 19.3369C17.5825 19.4607 17.3996 19.5269 17.1982 19.5269C16.8277 19.5224 16.5554 19.2576 16.5554 18.8514C16.5554 18.4452 16.8277 18.1804 17.1982 18.1759C17.3996 18.1759 17.5825 18.2421 17.7567 18.3658L17.9795 17.9951C17.7476 17.8141 17.5334 17.7435 17.212 17.7435C16.5242 17.7435 16.0735 18.2113 16.0735 18.8514ZM22.0558 17.7435C21.788 17.7435 21.6138 17.8672 21.4932 18.0526V17.7964H21.0333V19.9063H21.4978V18.7236C21.4978 18.3744 21.6495 18.1804 21.9531 18.1804C22.0471 18.1804 22.1453 18.1936 22.2434 18.2335L22.3864 17.801C22.2837 17.7611 22.1498 17.7435 22.0558 17.7435ZM9.61745 17.9642C9.39408 17.8187 9.0865 17.7435 8.74716 17.7435C8.20651 17.7435 7.85855 17.9996 7.85855 18.4189C7.85855 18.763 8.11764 18.9751 8.59494 19.0414L8.81413 19.0721C9.06861 19.1075 9.18868 19.1738 9.18868 19.293C9.18868 19.4561 9.01905 19.5491 8.70225 19.5491C8.38079 19.5491 8.14876 19.4475 7.99245 19.3283L7.77372 19.6855C8.02822 19.8709 8.34959 19.9594 8.6976 19.9594C9.31388 19.9594 9.6711 19.6724 9.6711 19.2708C9.6711 18.8999 9.39007 18.7059 8.92553 18.6397L8.70682 18.6084C8.50599 18.5821 8.34502 18.5427 8.34502 18.4012C8.34502 18.2466 8.49677 18.1541 8.75125 18.1541C9.02362 18.1541 9.28733 18.2558 9.41662 18.3351L9.61745 17.9642ZM15.6044 17.7435C15.3366 17.7435 15.1624 17.8672 15.0422 18.0526V17.7964H14.5823V19.9063H15.0463V18.7236C15.0463 18.3744 15.1982 18.1804 15.5016 18.1804C15.5957 18.1804 15.6938 18.1936 15.7919 18.2335L15.935 17.801C15.8323 17.7611 15.6984 17.7435 15.6044 17.7435ZM11.6446 17.7964H10.8858V17.1564H10.4167V17.7964H9.98381V18.2158H10.4167V19.1783C10.4167 19.6678 10.6088 19.9594 11.1576 19.9594C11.3589 19.9594 11.5909 19.8978 11.7381 19.7961L11.6042 19.4031C11.4657 19.4824 11.314 19.5224 11.1934 19.5224C10.9614 19.5224 10.8858 19.3809 10.8858 19.1692V18.2158H11.6446V17.7964ZM4.70666 19.9063V18.5821C4.70666 18.0834 4.38524 17.748 3.86707 17.7435C3.5947 17.7389 3.31365 17.8228 3.11692 18.1188C2.96975 17.8849 2.73775 17.7435 2.41173 17.7435C2.18382 17.7435 1.96102 17.8096 1.78677 18.0567V17.7964H1.32227V19.9063H1.79086V18.7367C1.79086 18.3704 1.99628 18.1759 2.31361 18.1759C2.62175 18.1759 2.77761 18.3744 2.77761 18.7321V19.9063H3.24671V18.7367C3.24671 18.3704 3.46082 18.1759 3.76896 18.1759C4.08578 18.1759 4.23755 18.3744 4.23755 18.7321V19.9063H4.70666Z" fill="#9A9C9E"/>
<path d="M25.7552 12.8902V12.582H25.674L25.58 12.7937L25.4865 12.582H25.4047V12.8902H25.4625V12.6578L25.5503 12.8583H25.6101L25.698 12.6573V12.8902H25.7552ZM25.2396 12.8902V12.6346H25.3439V12.5825H25.0781V12.6346H25.1824V12.8902H25.2396Z" fill="#F79410"/>
<path d="M16.5147 14.214H9.48242V1.71875H16.5147V14.214Z" fill="#FF5F00"/>
<path d="M9.93397 7.96625C9.93397 5.43155 11.1343 3.17368 13.0035 1.71862C11.6367 0.654604 9.91144 0.0195312 8.0366 0.0195312C3.59799 0.0195312 0 3.57735 0 7.96625C0 12.3552 3.59799 15.913 8.0366 15.913C9.91144 15.913 11.6367 15.2779 13.0035 14.2139C11.1343 12.7589 9.93397 10.501 9.93397 7.96625Z" fill="#EB001B"/>
<path d="M26.0001 7.96625C26.0001 12.3552 22.4022 15.913 17.9636 15.913C16.0887 15.913 14.3635 15.2779 12.9961 14.2139C14.8658 12.7589 16.0662 10.501 16.0662 7.96625C16.0662 5.43155 14.8658 3.17368 12.9961 1.71862C14.3635 0.654604 16.0887 0.0195312 17.9636 0.0195312C22.4022 0.0195312 26.0001 3.57735 26.0001 7.96625Z" fill="#F79E1B"/>
</g>
<defs>
<clipPath id="clip0_919_27585">
<rect width="26" height="20" fill="white" transform="translate(0 0.0195312)"/>
</clipPath>
</defs>
</svg>
