<svg width="49" height="15" viewBox="0 0 49 15" fill="none" xmlns="http://www.w3.org/2000/svg">
<g clip-path="url(#clip0_919_27599)">
<path fill-rule="evenodd" clip-rule="evenodd" d="M13.2011 0.433594V0.439522C13.1951 0.439522 11.3031 0.433594 10.7986 2.21801C10.3361 3.85421 9.03273 8.37157 8.99674 8.49609H8.63636C8.63636 8.49609 7.30295 3.87792 6.83446 2.21208C6.32993 0.427666 4.43195 0.433594 4.43195 0.433594H0.107422V14.0094H4.43195V5.94689H4.61213H4.79232L7.31496 14.0094H10.3181L12.8407 5.95282H13.2011V14.0094H17.5257V0.433594H13.2011Z" fill="#4DB45E"/>
<path fill-rule="evenodd" clip-rule="evenodd" d="M28.9968 0.433594C28.9968 0.433594 27.7295 0.546231 27.1348 1.85638L24.0717 8.49609H23.7113V0.433594H19.3867V14.0094H23.471C23.471 14.0094 24.7984 13.8908 25.393 12.5866L28.3961 5.94689H28.7565V14.0094H33.0811V0.433594H28.9968Z" fill="#4DB45E"/>
<path fill-rule="evenodd" clip-rule="evenodd" d="M35.0039 6.60156V14.0119H39.3284V9.68425H44.0133C46.0554 9.68425 47.7852 8.39781 48.4279 6.60156H35.0039Z" fill="#4DB45E"/>
<path fill-rule="evenodd" clip-rule="evenodd" d="M44.0126 0.433594H34.3965C34.877 3.01832 36.8411 5.09322 39.3817 5.76904C39.9583 5.92318 40.565 6.00617 41.1896 6.00617H48.6014C48.6674 5.69791 48.6974 5.38371 48.6974 5.05765C48.6974 2.50256 46.6012 0.433594 44.0126 0.433594Z" fill="url(#paint0_linear_919_27599)"/>
</g>
<defs>
<linearGradient id="paint0_linear_919_27599" x1="34.3976" y1="3.21988" x2="48.6974" y2="3.21988" gradientUnits="userSpaceOnUse">
<stop offset="0.3" stop-color="#00B4E6"/>
<stop offset="1" stop-color="#088CCB"/>
</linearGradient>
<clipPath id="clip0_919_27599">
<rect width="49" height="14" fill="white" transform="translate(0 0.0195312)"/>
</clipPath>
</defs>
</svg>
