<svg width="20" height="21" viewBox="0 0 20 21" fill="none" xmlns="http://www.w3.org/2000/svg">
<g clip-path="url(#clip0_919_27604)">
<mask id="mask0_919_27604" style="mask-type:alpha" maskUnits="userSpaceOnUse" x="0" y="1" width="19" height="20">
<path fill-rule="evenodd" clip-rule="evenodd" d="M16.996 10.2595C16.999 10.3465 17 10.4325 17 10.5195C17 14.6615 13.642 18.0195 9.5 18.0195C5.358 18.0195 2 14.6615 2 10.5195C2 6.37753 5.358 3.01953 9.5 3.01953C11.024 3.01953 12.441 3.47353 13.624 4.25453L15.257 2.96153C13.66 1.74353 11.664 1.01953 9.5 1.01953C4.253 1.01953 0 5.27253 0 10.5195C0 15.7665 4.253 20.0195 9.5 20.0195C14.747 20.0195 19 15.7665 19 10.5195C19 9.93253 18.947 9.35753 18.845 8.79953L16.996 10.2595Z" fill="#C4C4C4"/>
</mask>
<g mask="url(#mask0_919_27604)">
<path d="M16.994 10.2225C16.998 10.3215 17 10.4205 17 10.5195C17 14.6615 13.642 18.0195 9.5 18.0195C5.358 18.0195 2 14.6615 2 10.5195C2 6.37753 5.358 3.01953 9.5 3.01953C11.024 3.01953 12.441 3.47353 13.624 4.25453L15.257 2.96153C13.66 1.74353 11.664 1.01953 9.5 1.01953C4.253 1.01953 0 5.27253 0 10.5195C0 15.7665 4.253 20.0195 9.5 20.0195C14.747 20.0195 19 15.7665 19 10.5195C19 9.91453 18.943 9.32254 18.835 8.74854L16.994 10.2225Z" fill="#24A236"/>
<path d="M8.40385 9.05769C13.0452 9.05769 16.8077 5.29516 16.8077 0.653839C16.8077 -3.98748 13.0452 -7.75 8.40385 -7.75C3.76254 -7.75 0 -3.98748 0 0.653839C0 5.29516 3.76254 9.05769 8.40385 9.05769Z" fill="#008ACB"/>
<g filter="url(#filter0_f_919_27604)">
<path d="M7.30769 28.0568C11.3436 28.0568 14.6154 24.785 14.6154 20.7491C14.6154 16.7132 11.3436 13.4414 7.30769 13.4414C3.27177 13.4414 0 16.7132 0 20.7491C0 24.785 3.27177 28.0568 7.30769 28.0568Z" fill="#77F628"/>
</g>
<g filter="url(#filter1_f_919_27604)">
<path d="M0.731522 14.174C4.76745 14.174 8.03922 10.9022 8.03922 6.86627C8.03922 2.83035 4.76745 -0.441406 0.731522 -0.441406C-3.3044 -0.441406 -6.57617 2.83035 -6.57617 6.86627C-6.57617 10.9022 -3.3044 14.174 0.731522 14.174Z" fill="#19E7E8"/>
</g>
<g filter="url(#filter2_f_919_27604)">
<path d="M0.000442505 20.0204C3.22918 20.0204 5.84659 17.403 5.84659 14.1743C5.84659 10.9455 3.22918 8.32812 0.000442505 8.32812C-3.2283 8.32812 -5.8457 10.9455 -5.8457 14.1743C-5.8457 17.403 -3.2283 20.0204 0.000442505 20.0204Z" fill="#DEFA1B"/>
</g>
</g>
<path fill-rule="evenodd" clip-rule="evenodd" d="M18.049 6.37149L9.5 13.0205V10.5205L16.999 4.6875C17.405 5.2085 17.757 5.77249 18.049 6.37149Z" fill="#24A236"/>
<path fill-rule="evenodd" clip-rule="evenodd" d="M6 10.825L9.5 13.02V10.52L6 8.33203V10.825Z" fill="#24A236"/>
</g>
<defs>
<filter id="filter0_f_919_27604" x="-8" y="5.44141" width="30.6152" height="30.6152" filterUnits="userSpaceOnUse" color-interpolation-filters="sRGB">
<feFlood flood-opacity="0" result="BackgroundImageFix"/>
<feBlend mode="normal" in="SourceGraphic" in2="BackgroundImageFix" result="shape"/>
<feGaussianBlur stdDeviation="4" result="effect1_foregroundBlur_919_27604"/>
</filter>
<filter id="filter1_f_919_27604" x="-14.5762" y="-8.44141" width="30.6152" height="30.6152" filterUnits="userSpaceOnUse" color-interpolation-filters="sRGB">
<feFlood flood-opacity="0" result="BackgroundImageFix"/>
<feBlend mode="normal" in="SourceGraphic" in2="BackgroundImageFix" result="shape"/>
<feGaussianBlur stdDeviation="4" result="effect1_foregroundBlur_919_27604"/>
</filter>
<filter id="filter2_f_919_27604" x="-11.8457" y="2.32812" width="23.6914" height="23.6924" filterUnits="userSpaceOnUse" color-interpolation-filters="sRGB">
<feFlood flood-opacity="0" result="BackgroundImageFix"/>
<feBlend mode="normal" in="SourceGraphic" in2="BackgroundImageFix" result="shape"/>
<feGaussianBlur stdDeviation="3" result="effect1_foregroundBlur_919_27604"/>
</filter>
<clipPath id="clip0_919_27604">
<rect width="20" height="20" fill="white" transform="translate(0 0.0195312)"/>
</clipPath>
</defs>
</svg>
