<svg width="27" height="21" viewBox="0 0 27 21" fill="none" xmlns="http://www.w3.org/2000/svg">
<g clip-path="url(#clip0_919_27620)">
<path fill-rule="evenodd" clip-rule="evenodd" d="M17.2805 19.4595C22.6492 19.4595 27.0005 15.1082 27.0005 9.73953C27.0005 4.37085 22.6492 0.0195312 17.2805 0.0195312C11.9119 0.0195312 7.56055 4.37085 7.56055 9.73953C7.56055 15.1082 11.9119 19.4595 17.2805 19.4595ZM17.2805 13.5195C19.3682 13.5195 21.0605 11.8272 21.0605 9.73953C21.0605 7.65189 19.3682 5.95953 17.2805 5.95953C15.1929 5.95953 13.5005 7.65189 13.5005 9.73953C13.5005 11.8272 15.1929 13.5195 17.2805 13.5195Z" fill="#8A42F9"/>
<path d="M7.56 3.25977H0L4.03161 16.2198H7.56V3.25977Z" fill="#8A42F9"/>
</g>
<defs>
<clipPath id="clip0_919_27620">
<rect width="27" height="20" fill="white" transform="translate(0 0.0195312)"/>
</clipPath>
</defs>
</svg>
