<svg width="20" height="21" viewBox="0 0 20 21" fill="none" xmlns="http://www.w3.org/2000/svg">
<g clip-path="url(#clip0_919_27566)">
<path d="M1.56252 3.3125H17.1875C18.0469 3.3125 18.75 4.01562 18.75 4.87501V6.75003C18.75 7.60943 18.0469 8.31255 17.1875 8.31255H1.56252C0.703122 8.31247 0 7.60935 0 6.74999V4.87498C0 4.01562 0.703122 3.3125 1.56252 3.3125Z" fill="#A86A3F"/>
<path d="M4.98438 4.98385L14.7656 2.39012C15.0938 2.29637 15.4375 2.4995 15.5312 2.82763L17.1562 8.82763C17.25 9.15577 17.0469 9.49949 16.7187 9.59324L3.98438 12.9838C3.65625 13.0776 3.31252 12.8745 3.21878 12.5463L2.03125 8.1401L4.98438 4.98385Z" fill="#5EBA6D"/>
<path d="M15.4534 8.64092L13.3441 9.2034C13.1722 9.25029 13.0003 9.1565 12.9691 8.98464C12.9222 8.81278 13.016 8.64088 13.1878 8.60965L15.0003 8.12529L14.0316 4.5003L12.2191 4.98466C12.0472 5.03156 11.8753 4.93777 11.8441 4.76591C11.7972 4.59404 11.891 4.42214 12.0629 4.39092L14.1722 3.82844C14.3441 3.78154 14.516 3.87533 14.5472 4.04719L15.6722 8.26593C15.719 8.43779 15.6253 8.60965 15.4534 8.64092ZM6.70342 11.0003L4.59405 11.5628C4.42219 11.6097 4.25029 11.5159 4.21906 11.344L3.09406 7.12529C3.04717 6.95343 3.14096 6.78153 3.31282 6.7503L5.42218 6.18782C5.59405 6.14093 5.76595 6.23472 5.79717 6.40658C5.84406 6.57844 5.75028 6.75034 5.57841 6.78157L3.76592 7.26593L4.73465 10.8909L6.54715 10.4066C6.71901 10.3597 6.89091 10.4535 6.92213 10.6253C6.96903 10.7815 6.87528 10.9534 6.70342 11.0003Z" fill="#B3F0BD"/>
<path d="M0.125046 7.17163C2.90627 5.57785 10.4063 1.18721 10.4063 1.18721C10.7032 1.01535 11.0938 1.1091 11.2657 1.40597L14.3907 6.78097C14.5626 7.07784 14.4532 7.45283 14.1563 7.62473L2.71878 14.1872C2.42191 14.3591 2.03129 14.2653 1.85938 13.9685C1.85938 13.9685 0.984399 12.1872 0.109375 10.6872C0.109415 7.17163 0.125046 8.32785 0.125046 7.17163Z" fill="#5EBA6D"/>
<path d="M12.7961 6.60865L10.6087 2.8274C10.5149 2.67116 10.3274 2.62427 10.1868 2.71802L8.29616 3.81176C8.13993 3.9055 8.09303 4.093 8.18678 4.23364C8.28053 4.38987 8.46802 4.43676 8.60866 4.34302L10.2337 3.40551L12.1087 6.6555L10.4837 7.59301C10.3274 7.68676 10.2806 7.87425 10.3743 8.01489C10.468 8.17113 10.6555 8.21802 10.7962 8.12427L12.6868 7.03053C12.8274 6.95242 12.8899 6.76492 12.7961 6.60865ZM4.5149 11.0305L2.8899 11.9681L1.01488 8.71802L2.63988 7.78051C2.79611 7.68676 2.84301 7.49927 2.74926 7.35863C2.65551 7.20239 2.46802 7.1555 2.32738 7.24925L0.43677 8.34299C0.280539 8.43674 0.233645 8.62423 0.327392 8.76487L2.51487 12.5461C2.60862 12.7024 2.79611 12.7493 2.93675 12.6555L4.82736 11.5618C4.9836 11.468 5.03049 11.2805 4.93674 11.1399C4.85863 10.9993 4.67113 10.9368 4.5149 11.0305ZM5.31177 5.51491C4.10865 6.2024 3.7024 7.73365 4.38989 8.93677C5.09301 10.1399 6.60863 10.5461 7.81175 9.85865C9.01487 9.17116 9.42112 7.63991 8.73363 6.43679C8.03051 5.24926 6.51489 4.82742 5.31177 5.51491ZM12.7961 6.60865L10.6087 2.8274C10.5149 2.67116 10.3274 2.62427 10.1868 2.71802L8.29616 3.81176C8.13993 3.9055 8.09303 4.093 8.18678 4.23364C8.28053 4.38987 8.46802 4.43676 8.60866 4.34302L10.2337 3.40551L12.1087 6.6555L10.4837 7.59301C10.3274 7.68676 10.2806 7.87425 10.3743 8.01489C10.468 8.17113 10.6555 8.21802 10.7962 8.12427L12.6868 7.03053C12.8274 6.95242 12.8899 6.76492 12.7961 6.60865ZM4.5149 11.0305L2.8899 11.9681L1.01488 8.71802L2.63988 7.78051C2.79611 7.68676 2.84301 7.49927 2.74926 7.35863C2.65551 7.20239 2.46802 7.1555 2.32738 7.24925L0.43677 8.34299C0.280539 8.43674 0.233645 8.62423 0.327392 8.76487L2.51487 12.5461C2.60862 12.7024 2.79611 12.7493 2.93675 12.6555L4.82736 11.5618C4.9836 11.468 5.03049 11.2805 4.93674 11.1399C4.85863 10.9993 4.67113 10.9368 4.5149 11.0305ZM5.31177 5.51491C4.10865 6.2024 3.7024 7.73365 4.38989 8.93677C5.09301 10.1399 6.60863 10.5461 7.81175 9.85865C9.01487 9.17116 9.42112 7.63991 8.73363 6.43679C8.03051 5.24926 6.51489 4.82742 5.31177 5.51491Z" fill="#B3F0BD"/>
<path d="M17.8125 18.9375H1.56252C0.703122 18.9375 0 18.2344 0 17.375V6.12501H17.8125C18.6719 6.12501 19.375 6.82813 19.375 7.68753V17.375C19.375 18.2344 18.6719 18.9375 17.8125 18.9375ZM1.25001 6.12501H0V4.875C0 5.56249 0.562482 6.12501 1.25001 6.12501Z" fill="#C47E4D"/>
<path d="M19.375 15.0312H16.875C15.6719 15.0312 14.6875 14.0469 14.6875 12.8437C14.6875 11.6406 15.6719 10.6562 16.875 10.6562H19.375C19.7187 10.6562 20 10.9375 20 11.2813V14.4062C20 14.75 19.7187 15.0312 19.375 15.0312Z" fill="#A86A3F"/>
<path d="M16.875 11.5938C17.5625 11.5938 18.125 12.1562 18.125 12.8438C18.125 13.5313 17.5625 14.0938 16.875 14.0938C16.1875 14.0938 15.625 13.5313 15.625 12.8438C15.625 12.1562 16.1875 11.5938 16.875 11.5938Z" fill="#EFC75E"/>
<path d="M17.1875 13.7813C16.5 13.7813 15.9375 13.2188 15.9375 12.5312C15.9375 12.2656 16.0156 12.0156 16.1563 11.8125C15.8281 12.0313 15.625 12.4062 15.625 12.8437C15.625 13.5312 16.1875 14.0938 16.875 14.0938C17.2969 14.0938 17.6719 13.875 17.9063 13.5625C17.7031 13.7031 17.4531 13.7813 17.1875 13.7813Z" fill="#D7B354"/>
<path d="M17.8125 18.3125H1.56252C0.703122 18.3125 0 17.6094 0 16.75V17.375C0 18.2344 0.703122 18.9375 1.56252 18.9375H17.8125C18.6719 18.9375 19.375 18.2344 19.375 17.375V16.75C19.375 17.6094 18.6719 18.3125 17.8125 18.3125Z" fill="#B27245"/>
<path d="M17.8125 6.12501H1.25001C0.562482 6.12501 0 5.56249 0 4.875V5.50001C0 6.1875 0.562482 6.75002 1.25001 6.75002H17.8125C18.6719 6.75002 19.375 7.45314 19.375 8.31253V7.68753C19.375 6.82813 18.6719 6.12501 17.8125 6.12501Z" fill="#CA8B5F"/>
</g>
<defs>
<clipPath id="clip0_919_27566">
<rect width="20" height="20" fill="white" transform="translate(0 0.0195312)"/>
</clipPath>
</defs>
</svg>
