<svg width="46" height="21" viewBox="0 0 46 21" fill="none" xmlns="http://www.w3.org/2000/svg">
<path d="M19.9092 17.7847H16.1875L18.5153 2.76562H22.2368L19.9092 17.7847Z" fill="#00579F"/>
<path d="M33.4003 3.13356C32.6662 2.82967 31.5019 2.49414 30.0622 2.49414C26.387 2.49414 23.7989 4.53919 23.7831 7.46298C23.7525 9.62015 25.636 10.8183 27.0448 11.5375C28.4846 12.2726 28.9741 12.7523 28.9741 13.4075C28.9594 14.4136 27.8106 14.8774 26.7391 14.8774C25.2532 14.8774 24.4571 14.6383 23.2472 14.0785L22.7571 13.8385L22.2363 17.2099C23.1093 17.6249 24.7174 17.9931 26.387 18.0093C30.292 18.0093 32.8343 15.9959 32.8644 12.8801C32.8793 11.1704 31.8848 9.86034 29.7405 8.78982C28.4388 8.10262 27.6416 7.63924 27.6416 6.93611C27.657 6.29691 28.3159 5.64219 29.7853 5.64219C30.9952 5.61012 31.8841 5.91359 32.5575 6.21727L32.8941 6.37675L33.4003 3.13356Z" fill="#00579F"/>
<path d="M38.3459 12.464C38.6524 11.6012 39.8317 8.26177 39.8317 8.26177C39.8163 8.29383 40.1376 7.38301 40.3214 6.82386L40.5815 8.118C40.5815 8.118 41.2863 11.7131 41.4393 12.464C40.8577 12.464 39.081 12.464 38.3459 12.464ZM42.9398 2.76562H40.0611C39.1734 2.76562 38.499 3.03702 38.1159 4.01177L32.5879 17.7845H36.4929C36.4929 17.7845 37.1358 15.9308 37.274 15.5316C37.7024 15.5316 41.5012 15.5316 42.0523 15.5316C42.1591 16.0588 42.4964 17.7845 42.4964 17.7845H45.9422L42.9398 2.76562Z" fill="#00579F"/>
<path d="M13.0791 2.76562L9.43432 13.0072L9.03604 10.9301C8.36222 8.53337 6.24894 5.92939 3.89062 4.63462L7.22906 17.7688H11.1646L17.0144 2.76562H13.0791Z" fill="#00579F"/>
<path d="M6.04903 2.76562H0.0612573L0 3.06909C4.67084 4.31544 7.76426 7.31973 9.03517 10.9307L7.73352 4.02812C7.51921 3.06888 6.86064 2.79727 6.04903 2.76562Z" fill="#FAA61A"/>
</svg>
