<svg width="24" height="24" viewBox="0 0 24 24" fill="none" xmlns="http://www.w3.org/2000/svg">
<path d="M3.49592 17.8195C3.61411 18.7774 4.38404 19.5318 5.34421 19.6298C7.48059 19.848 9.70887 20.1164 11.9996 20.1164C14.2903 20.1164 16.5186 19.848 18.655 19.6298C19.6151 19.5318 20.385 18.7774 20.5032 17.8195C20.7341 15.9488 20.9992 14.0007 20.9992 11.9996C20.9992 9.99857 20.7341 8.05049 20.5032 6.17971C20.385 5.22182 19.6151 4.46746 18.655 4.36942C16.5186 4.15127 14.2903 3.88281 11.9996 3.88281C9.70887 3.88281 7.48059 4.15127 5.34421 4.36942C4.38404 4.46746 3.61411 5.22182 3.49592 6.17971C3.26509 8.05049 3 9.99857 3 11.9996C3 14.0007 3.26509 15.9488 3.49592 17.8195Z" stroke="#505567" stroke-width="1.5" stroke-linejoin="round"/>
<path d="M3.44531 6.53418L10.7608 12.3022C11.4871 12.8748 12.5112 12.8748 13.2374 12.3022L20.553 6.53418" stroke="#505567" stroke-width="1.5" stroke-linejoin="round"/>
</svg>
