<svg width="24" height="24" viewBox="0 0 24 24" fill="none" xmlns="http://www.w3.org/2000/svg">
<path d="M11.4209 20.6542L10.9385 21.2285L11.4209 20.6542ZM18.2503 9.88003C18.2503 12.1199 17.1694 14.304 15.8145 16.1482C14.468 17.981 12.912 19.3953 12.097 20.08L13.0618 21.2285C13.9243 20.5039 15.5788 19.0025 17.0233 17.0363C18.4595 15.0815 19.7503 12.5831 19.7503 9.88003H18.2503ZM11.9033 20.08C11.0883 19.3953 9.53231 17.981 8.18579 16.1482C6.83089 14.304 5.75 12.1199 5.75 9.88003H4.25C4.25 12.5831 5.5408 15.0815 6.97696 17.0363C8.42151 19.0025 10.076 20.5039 10.9385 21.2285L11.9033 20.08ZM5.75 9.88003C5.75 6.42817 8.54828 3.62988 12.0001 3.62988V2.12988C7.71986 2.12988 4.25 5.59974 4.25 9.88003H5.75ZM12.0001 3.62988C15.452 3.62988 18.2503 6.42817 18.2503 9.88003H19.7503C19.7503 5.59974 16.2804 2.12988 12.0001 2.12988V3.62988ZM12.097 20.08C12.0626 20.1088 12.0288 20.1182 12.0001 20.1182C11.9715 20.1182 11.9377 20.1088 11.9033 20.08L10.9385 21.2285C11.557 21.7481 12.4433 21.7481 13.0618 21.2285L12.097 20.08Z" fill="#505567"/>
<path d="M11.9999 12.3358C13.5834 12.3358 14.8671 11.0522 14.8671 9.46869C14.8671 7.88522 13.5834 6.60156 11.9999 6.60156C10.4165 6.60156 9.13281 7.88522 9.13281 9.46869C9.13281 11.0522 10.4165 12.3358 11.9999 12.3358Z" stroke="#505567" stroke-width="1.5" stroke-linecap="round" stroke-linejoin="round"/>
</svg>
